<?xml version="1.0" encoding="UTF-8"?>
<!DOCTYPE svg PUBLIC "-//W3C//DTD SVG 1.1//EN" "http://www.w3.org/Graphics/SVG/1.1/DTD/svg11.dtd">
<svg xmlns="http://www.w3.org/2000/svg" version="1.1" width="3088px" height="1051px" style="shape-rendering:geometricPrecision; text-rendering:geometricPrecision; image-rendering:optimizeQuality; fill-rule:evenodd; clip-rule:evenodd" xmlns:xlink="http://www.w3.org/1999/xlink">
<g><path style="opacity:1" fill="#f24444" d="M 244.5,147.5 C 378.5,147.5 512.5,147.5 646.5,147.5C 651.981,149.699 657.314,152.366 662.5,155.5C 664.539,156.911 665.539,158.911 665.5,161.5C 665.5,162.833 665.5,164.167 665.5,165.5C 663.79,169.717 661.79,173.717 659.5,177.5C 657.721,178.67 656.721,180.336 656.5,182.5C 653.74,184.254 651.74,186.588 650.5,189.5C 648.721,190.67 647.721,192.336 647.5,194.5C 645.468,195.048 644.468,196.381 644.5,198.5C 644.672,199.492 644.338,200.158 643.5,200.5C 641.952,200.821 641.285,201.821 641.5,203.5C 641.5,204.167 641.167,204.5 640.5,204.5C 638.952,204.821 638.285,205.821 638.5,207.5C 638.672,208.492 638.338,209.158 637.5,209.5C 635.088,209.694 634.088,211.027 634.5,213.5C 632.259,214.3 631.259,215.966 631.5,218.5C 629.088,218.694 628.088,220.027 628.5,222.5C 626.259,223.3 625.259,224.966 625.5,227.5C 624.504,227.414 623.671,227.748 623,228.5C 621.562,229.9 620.729,231.567 620.5,233.5C 618.468,234.048 617.468,235.381 617.5,237.5C 615.721,238.67 614.721,240.336 614.5,242.5C 614.5,243.167 614.167,243.5 613.5,243.5C 611.952,243.821 611.285,244.821 611.5,246.5C 611.672,247.492 611.338,248.158 610.5,248.5C 608.088,248.694 607.088,250.027 607.5,252.5C 605.259,253.3 604.259,254.966 604.5,257.5C 602.088,257.694 601.088,259.027 601.5,261.5C 600.167,261.5 599.5,262.167 599.5,263.5C 597.468,264.048 596.468,265.381 596.5,267.5C 596.672,268.492 596.338,269.158 595.5,269.5C 593.088,269.694 592.088,271.027 592.5,273.5C 590.259,274.3 589.259,275.966 589.5,278.5C 589.158,279.338 588.492,279.672 587.5,279.5C 584.873,281.452 583.54,284.119 583.5,287.5C 582.761,287.369 582.094,287.536 581.5,288C 577.552,292.254 574.552,297.088 572.5,302.5C 569.68,303.465 568.347,305.465 568.5,308.5C 568.158,309.338 567.492,309.672 566.5,309.5C 564.721,310.67 563.721,312.336 563.5,314.5C 561.468,315.048 560.468,316.381 560.5,318.5C 558.721,319.67 557.721,321.336 557.5,323.5C 557.5,324.167 557.167,324.5 556.5,324.5C 554.952,324.821 554.285,325.821 554.5,327.5C 554.672,328.492 554.338,329.158 553.5,329.5C 551.088,329.694 550.088,331.027 550.5,333.5C 548.952,333.821 548.285,334.821 548.5,336.5C 545.108,339.423 542.775,343.09 541.5,347.5C 540.504,347.414 539.671,347.748 539,348.5C 537.562,349.9 536.729,351.567 536.5,353.5C 534.468,354.048 533.468,355.381 533.5,357.5C 531.721,358.67 530.721,360.336 530.5,362.5C 530.5,363.167 530.167,363.5 529.5,363.5C 527.952,363.821 527.285,364.821 527.5,366.5C 527.672,367.492 527.338,368.158 526.5,368.5C 524.088,368.694 523.088,370.027 523.5,372.5C 521.259,373.3 520.259,374.966 520.5,377.5C 518.088,377.694 517.088,379.027 517.5,381.5C 515.976,382.174 514.642,383.174 513.5,384.5C 512.614,385.325 512.281,386.325 512.5,387.5C 510.721,388.67 509.721,390.336 509.5,392.5C 507.468,393.048 506.468,394.381 506.5,396.5C 504.721,397.67 503.721,399.336 503.5,401.5C 503.5,402.167 503.167,402.5 502.5,402.5C 500.259,403.3 499.259,404.966 499.5,407.5C 497.088,407.694 496.088,409.027 496.5,411.5C 492.409,414.046 489.742,417.713 488.5,422.5C 486.468,423.048 485.468,424.381 485.5,426.5C 485.5,428.5 484.5,429.5 482.5,429.5C 480.721,430.67 479.721,432.336 479.5,434.5C 479.5,435.167 479.167,435.5 478.5,435.5C 476.952,435.821 476.285,436.821 476.5,438.5C 476.672,439.492 476.338,440.158 475.5,440.5C 473.952,440.821 473.285,441.821 473.5,443.5C 473.5,444.167 473.167,444.5 472.5,444.5C 470.259,445.3 469.259,446.966 469.5,449.5C 468.504,449.414 467.671,449.748 467,450.5C 466.506,452.134 466.34,453.801 466.5,455.5C 575.5,455.5 684.5,455.5 793.5,455.5C 793.5,604.5 793.5,753.5 793.5,902.5C 539.5,902.5 285.5,902.5 31.5,902.5C 31.5,883.833 31.5,865.167 31.5,846.5C 31.5,816.5 31.5,786.5 31.5,756.5C 31.5,724.5 31.5,692.5 31.5,660.5C 31.5,614.5 31.5,568.5 31.5,522.5C 31.5,470.5 31.5,418.5 31.5,366.5C 31.9416,362.963 32.9416,359.63 34.5,356.5C 39.2795,350.617 44.2795,344.95 49.5,339.5C 49.5,338.833 49.8333,338.5 50.5,338.5C 51.8333,338.5 52.5,337.833 52.5,336.5C 52.5,335.833 52.8333,335.5 53.5,335.5C 54.8333,335.5 55.5,334.833 55.5,333.5C 55.5,332.833 55.8333,332.5 56.5,332.5C 57.8333,332.5 58.5,331.833 58.5,330.5C 58.5,329.833 58.8333,329.5 59.5,329.5C 60.8333,329.5 61.5,328.833 61.5,327.5C 61.5,326.833 61.8333,326.5 62.5,326.5C 63.8333,326.5 64.5,325.833 64.5,324.5C 72.954,316.897 80.954,308.897 88.5,300.5C 88.5,299.833 88.8333,299.5 89.5,299.5C 90.8333,299.5 91.5,298.833 91.5,297.5C 91.5,296.833 91.8333,296.5 92.5,296.5C 93.8333,296.5 94.5,295.833 94.5,294.5C 94.5,293.833 94.8333,293.5 95.5,293.5C 96.8333,293.5 97.5,292.833 97.5,291.5C 97.5,290.833 97.8333,290.5 98.5,290.5C 99.8333,290.5 100.5,289.833 100.5,288.5C 100.5,287.833 100.833,287.5 101.5,287.5C 102.833,287.5 103.5,286.833 103.5,285.5C 105.19,285.144 106.19,284.144 106.5,282.5C 114.188,276.146 121.188,269.146 127.5,261.5C 127.5,260.833 127.833,260.5 128.5,260.5C 129.833,260.5 130.5,259.833 130.5,258.5C 130.5,257.833 130.833,257.5 131.5,257.5C 132.833,257.5 133.5,256.833 133.5,255.5C 133.5,254.833 133.833,254.5 134.5,254.5C 135.833,254.5 136.5,253.833 136.5,252.5C 136.5,251.833 136.833,251.5 137.5,251.5C 138.833,251.5 139.5,250.833 139.5,249.5C 139.5,248.833 139.833,248.5 140.5,248.5C 141.833,248.5 142.5,247.833 142.5,246.5C 142.5,245.833 142.833,245.5 143.5,245.5C 151.897,237.954 159.897,229.954 167.5,221.5C 168.833,221.5 169.5,220.833 169.5,219.5C 169.5,218.833 169.833,218.5 170.5,218.5C 171.833,218.5 172.5,217.833 172.5,216.5C 172.5,215.833 172.833,215.5 173.5,215.5C 174.833,215.5 175.5,214.833 175.5,213.5C 175.5,212.833 175.833,212.5 176.5,212.5C 177.833,212.5 178.5,211.833 178.5,210.5C 178.5,209.833 178.833,209.5 179.5,209.5C 180.833,209.5 181.5,208.833 181.5,207.5C 181.5,206.833 181.833,206.5 182.5,206.5C 183.833,206.5 184.5,205.833 184.5,204.5C 184.5,203.833 184.833,203.5 185.5,203.5C 193.146,197.188 200.146,190.188 206.5,182.5C 207.833,182.5 208.5,181.833 208.5,180.5C 208.5,179.833 208.833,179.5 209.5,179.5C 210.833,179.5 211.5,178.833 211.5,177.5C 211.5,176.833 211.833,176.5 212.5,176.5C 213.833,176.5 214.5,175.833 214.5,174.5C 214.5,173.833 214.833,173.5 215.5,173.5C 216.833,173.5 217.5,172.833 217.5,171.5C 217.5,170.833 217.833,170.5 218.5,170.5C 219.833,170.5 220.5,169.833 220.5,168.5C 220.5,167.833 220.833,167.5 221.5,167.5C 222.833,167.5 223.5,166.833 223.5,165.5C 223.5,164.833 223.833,164.5 224.5,164.5C 225.833,164.5 226.5,163.833 226.5,162.5C 226.5,161.833 226.833,161.5 227.5,161.5C 228.833,161.5 229.5,160.833 229.5,159.5C 229.5,158.833 229.833,158.5 230.5,158.5C 231.833,158.5 232.5,157.833 232.5,156.5C 232.5,155.833 232.833,155.5 233.5,155.5C 237.076,153.928 240.409,151.928 243.5,149.5C 244.298,149.043 244.631,148.376 244.5,147.5 Z M 305.5,288.5 C 317.5,288.5 329.5,288.5 341.5,288.5C 340.634,298.473 340.301,308.473 340.5,318.5C 340.5,319.167 340.5,319.833 340.5,320.5C 338.547,326.074 337.88,332.074 338.5,338.5C 337.702,352.819 337.369,367.152 337.5,381.5C 335.527,390.775 334.86,400.442 335.5,410.5C 335.5,413.833 335.5,417.167 335.5,420.5C 334.501,478.998 334.168,537.664 334.5,596.5C 437.833,596.5 541.167,596.5 644.5,596.5C 644.5,649.833 644.5,703.167 644.5,756.5C 502.167,756.5 359.833,756.5 217.5,756.5C 203.833,756.5 190.167,756.5 176.5,756.5C 176.5,691.5 176.5,626.5 176.5,561.5C 176.5,471.167 176.5,380.833 176.5,290.5C 219.846,291.161 262.846,290.495 305.5,288.5 Z"/></g>
<g><path style="opacity:1" fill="#967f91" d="M 244.5,147.5 C 244.631,148.376 244.298,149.043 243.5,149.5C 240.409,151.928 237.076,153.928 233.5,155.5C 235.842,151.149 239.508,148.482 244.5,147.5 Z"/></g>
<g><path style="opacity:1" fill="#ec4444" d="M 290.5,149.5 C 292.167,149.5 293.833,149.5 295.5,149.5C 295.833,194.505 295.5,239.505 294.5,284.5C 293.264,285.246 291.93,285.579 290.5,285.5C 290.5,240.167 290.5,194.833 290.5,149.5 Z"/></g>
<g><path style="opacity:1" fill="#9f8e79" d="M 646.5,147.5 C 650.504,147.778 654.337,148.778 658,150.5C 660.209,151.653 661.709,153.319 662.5,155.5C 657.314,152.366 651.981,149.699 646.5,147.5 Z"/></g>
<g><path style="opacity:1" fill="#957d8e" d="M 232.5,156.5 C 232.5,157.833 231.833,158.5 230.5,158.5C 230.5,157.167 231.167,156.5 232.5,156.5 Z"/></g>
<g><path style="opacity:1" fill="#9b7688" d="M 229.5,159.5 C 229.5,160.833 228.833,161.5 227.5,161.5C 227.5,160.167 228.167,159.5 229.5,159.5 Z"/></g>
<g><path style="opacity:1" fill="#a17688" d="M 226.5,162.5 C 226.5,163.833 225.833,164.5 224.5,164.5C 224.5,163.167 225.167,162.5 226.5,162.5 Z"/></g>
<g><path style="opacity:1" fill="#b97265" d="M 665.5,161.5 C 666.586,161.62 667.253,162.287 667.5,163.5C 667.253,164.713 666.586,165.38 665.5,165.5C 665.5,164.167 665.5,162.833 665.5,161.5 Z"/></g>
<g><path style="opacity:1" fill="#a17688" d="M 223.5,165.5 C 223.5,166.833 222.833,167.5 221.5,167.5C 221.5,166.167 222.167,165.5 223.5,165.5 Z"/></g>
<g><path style="opacity:1" fill="#a17688" d="M 220.5,168.5 C 220.5,169.833 219.833,170.5 218.5,170.5C 218.5,169.167 219.167,168.5 220.5,168.5 Z"/></g>
<g><path style="opacity:1" fill="#9a937b" d="M 662.5,155.5 C 664.714,155.291 666.381,156.124 667.5,158C 668.536,161.121 668.703,164.287 668,167.5C 665.823,170.322 663.823,173.322 662,176.5C 661.329,177.252 660.496,177.586 659.5,177.5C 661.79,173.717 663.79,169.717 665.5,165.5C 666.586,165.38 667.253,164.713 667.5,163.5C 667.253,162.287 666.586,161.62 665.5,161.5C 665.539,158.911 664.539,156.911 662.5,155.5 Z"/></g>
<g><path style="opacity:1" fill="#a17688" d="M 217.5,171.5 C 217.5,172.833 216.833,173.5 215.5,173.5C 215.5,172.167 216.167,171.5 217.5,171.5 Z"/></g>
<g><path style="opacity:1" fill="#a17682" d="M 214.5,174.5 C 214.5,175.833 213.833,176.5 212.5,176.5C 212.5,175.167 213.167,174.5 214.5,174.5 Z"/></g>
<g><path style="opacity:1" fill="#a17682" d="M 211.5,177.5 C 211.5,178.833 210.833,179.5 209.5,179.5C 209.5,178.167 210.167,177.5 211.5,177.5 Z"/></g>
<g><path style="opacity:1" fill="#a17682" d="M 208.5,180.5 C 208.5,181.833 207.833,182.5 206.5,182.5C 206.5,181.167 207.167,180.5 208.5,180.5 Z"/></g>
<g><path style="opacity:1" fill="#9d8f79" d="M 659.5,177.5 C 659.741,180.034 658.741,181.7 656.5,182.5C 656.721,180.336 657.721,178.67 659.5,177.5 Z"/></g>
<g><path style="opacity:1" fill="#aa8570" d="M 656.5,182.5 C 656.649,183.552 656.483,184.552 656,185.5C 654.349,187.21 652.516,188.544 650.5,189.5C 651.74,186.588 653.74,184.254 656.5,182.5 Z"/></g>
<g><path style="opacity:1" fill="#967e8f" d="M 206.5,182.5 C 200.146,190.188 193.146,197.188 185.5,203.5C 185.729,201.567 186.562,199.9 188,198.5C 193.5,193.667 198.667,188.5 203.5,183C 204.448,182.517 205.448,182.351 206.5,182.5 Z"/></g>
<g><path style="opacity:1" fill="#ad846f" d="M 650.5,189.5 C 650.741,192.034 649.741,193.7 647.5,194.5C 647.721,192.336 648.721,190.67 650.5,189.5 Z"/></g>
<g><path style="opacity:1" fill="#b27c6a" d="M 647.5,194.5 C 647.912,196.973 646.912,198.306 644.5,198.5C 644.468,196.381 645.468,195.048 647.5,194.5 Z"/></g>
<g><path style="opacity:1" fill="#a08d76" d="M 643.5,200.5 C 643.715,202.179 643.048,203.179 641.5,203.5C 641.285,201.821 641.952,200.821 643.5,200.5 Z"/></g>
<g><path style="opacity:1" fill="#a17682" d="M 184.5,204.5 C 184.5,205.833 183.833,206.5 182.5,206.5C 182.5,205.167 183.167,204.5 184.5,204.5 Z"/></g>
<g><path style="opacity:1" fill="#ae7e6e" d="M 640.5,204.5 C 640.715,206.179 640.048,207.179 638.5,207.5C 638.285,205.821 638.952,204.821 640.5,204.5 Z"/></g>
<g><path style="opacity:1" fill="#a17688" d="M 181.5,207.5 C 181.5,208.833 180.833,209.5 179.5,209.5C 179.5,208.167 180.167,207.5 181.5,207.5 Z"/></g>
<g><path style="opacity:1" fill="#a17082" d="M 178.5,210.5 C 178.5,211.833 177.833,212.5 176.5,212.5C 176.5,211.167 177.167,210.5 178.5,210.5 Z"/></g>
<g><path style="opacity:1" fill="#a68974" d="M 637.5,209.5 C 637.532,211.619 636.532,212.952 634.5,213.5C 634.088,211.027 635.088,209.694 637.5,209.5 Z"/></g>
<g><path style="opacity:1" fill="#a17082" d="M 175.5,213.5 C 175.5,214.833 174.833,215.5 173.5,215.5C 173.5,214.167 174.167,213.5 175.5,213.5 Z"/></g>
<g><path style="opacity:1" fill="#a17682" d="M 172.5,216.5 C 172.5,217.833 171.833,218.5 170.5,218.5C 170.5,217.167 171.167,216.5 172.5,216.5 Z"/></g>
<g><path style="opacity:1" fill="#a08d76" d="M 634.5,213.5 C 634.279,215.664 633.279,217.33 631.5,218.5C 631.259,215.966 632.259,214.3 634.5,213.5 Z"/></g>
<g><path style="opacity:1" fill="#a17682" d="M 169.5,219.5 C 169.5,220.833 168.833,221.5 167.5,221.5C 167.5,220.167 168.167,219.5 169.5,219.5 Z"/></g>
<g><path style="opacity:1" fill="#9b917b" d="M 631.5,218.5 C 631.532,220.619 630.532,221.952 628.5,222.5C 628.088,220.027 629.088,218.694 631.5,218.5 Z"/></g>
<g><path style="opacity:1" fill="#947b8f" d="M 167.5,221.5 C 159.897,229.954 151.897,237.954 143.5,245.5C 143.729,243.567 144.562,241.9 146,240.5C 152.167,234.333 158.333,228.167 164.5,222C 165.448,221.517 166.448,221.351 167.5,221.5 Z"/></g>
<g><path style="opacity:1" fill="#9c927a" d="M 628.5,222.5 C 628.279,224.664 627.279,226.33 625.5,227.5C 625.259,224.966 626.259,223.3 628.5,222.5 Z"/></g>
<g><path style="opacity:1" fill="#9c917b" d="M 625.5,227.5 C 625.719,228.675 625.386,229.675 624.5,230.5C 623.358,231.826 622.024,232.826 620.5,233.5C 620.729,231.567 621.562,229.9 623,228.5C 623.671,227.748 624.504,227.414 625.5,227.5 Z"/></g>
<g><path style="opacity:1" fill="#a88872" d="M 620.5,233.5 C 620.912,235.973 619.912,237.306 617.5,237.5C 617.468,235.381 618.468,234.048 620.5,233.5 Z"/></g>
<g><path style="opacity:1" fill="#9d8f79" d="M 617.5,237.5 C 617.741,240.034 616.741,241.7 614.5,242.5C 614.721,240.336 615.721,238.67 617.5,237.5 Z"/></g>
<g><path style="opacity:1" fill="#a98773" d="M 613.5,243.5 C 613.715,245.179 613.048,246.179 611.5,246.5C 611.285,244.821 611.952,243.821 613.5,243.5 Z"/></g>
<g><path style="opacity:1" fill="#a17082" d="M 142.5,246.5 C 142.5,247.833 141.833,248.5 140.5,248.5C 140.5,247.167 141.167,246.5 142.5,246.5 Z"/></g>
<g><path style="opacity:1" fill="#a17082" d="M 139.5,249.5 C 139.5,250.833 138.833,251.5 137.5,251.5C 137.5,250.167 138.167,249.5 139.5,249.5 Z"/></g>
<g><path style="opacity:1" fill="#9e917b" d="M 610.5,248.5 C 610.532,250.619 609.532,251.952 607.5,252.5C 607.088,250.027 608.088,248.694 610.5,248.5 Z"/></g>
<g><path style="opacity:1" fill="#a77082" d="M 136.5,252.5 C 136.5,253.833 135.833,254.5 134.5,254.5C 134.5,253.167 135.167,252.5 136.5,252.5 Z"/></g>
<g><path style="opacity:1" fill="#a17082" d="M 133.5,255.5 C 133.5,256.833 132.833,257.5 131.5,257.5C 131.5,256.167 132.167,255.5 133.5,255.5 Z"/></g>
<g><path style="opacity:1" fill="#9c9079" d="M 607.5,252.5 C 607.279,254.664 606.279,256.33 604.5,257.5C 604.259,254.966 605.259,253.3 607.5,252.5 Z"/></g>
<g><path style="opacity:1" fill="#a17688" d="M 130.5,258.5 C 130.5,259.833 129.833,260.5 128.5,260.5C 128.5,259.167 129.167,258.5 130.5,258.5 Z"/></g>
<g><path style="opacity:1" fill="#98957e" d="M 604.5,257.5 C 604.532,259.619 603.532,260.952 601.5,261.5C 601.088,259.027 602.088,257.694 604.5,257.5 Z"/></g>
<g><path style="opacity:1" fill="#95967c" d="M 601.5,261.5 C 601.5,262.833 600.833,263.5 599.5,263.5C 599.5,262.167 600.167,261.5 601.5,261.5 Z"/></g>
<g><path style="opacity:1" fill="#927b91" d="M 127.5,261.5 C 121.188,269.146 114.188,276.146 106.5,282.5C 106.351,281.448 106.517,280.448 107,279.5C 112.5,274.667 117.667,269.5 122.5,264C 123.9,262.562 125.567,261.729 127.5,261.5 Z"/></g>
<g><path style="opacity:1" fill="#ac846f" d="M 599.5,263.5 C 599.912,265.973 598.912,267.306 596.5,267.5C 596.468,265.381 597.468,264.048 599.5,263.5 Z"/></g>
<g><path style="opacity:1" fill="#a48c76" d="M 595.5,269.5 C 595.532,271.619 594.532,272.952 592.5,273.5C 592.088,271.027 593.088,269.694 595.5,269.5 Z"/></g>
<g><path style="opacity:1" fill="#a08d76" d="M 592.5,273.5 C 592.279,275.664 591.279,277.33 589.5,278.5C 589.259,275.966 590.259,274.3 592.5,273.5 Z"/></g>
<g><path style="opacity:1" fill="#9c7488" d="M 106.5,282.5 C 106.19,284.144 105.19,285.144 103.5,285.5C 103.5,284.5 103.5,283.5 103.5,282.5C 104.5,282.5 105.5,282.5 106.5,282.5 Z"/></g>
<g><path style="opacity:1" fill="#ab8470" d="M 587.5,279.5 C 587.46,282.881 586.127,285.548 583.5,287.5C 583.54,284.119 584.873,281.452 587.5,279.5 Z"/></g>
<g><path style="opacity:1" fill="#a77082" d="M 103.5,285.5 C 103.5,286.833 102.833,287.5 101.5,287.5C 101.5,286.167 102.167,285.5 103.5,285.5 Z"/></g>
<g><path style="opacity:1" fill="#a17082" d="M 100.5,288.5 C 100.5,289.833 99.8333,290.5 98.5,290.5C 98.5,289.167 99.1667,288.5 100.5,288.5 Z"/></g>
<g><path style="opacity:1" fill="#b47272" d="M 175.5,288.5 C 231.331,287.501 287.331,287.168 343.5,287.5C 342.776,298 341.776,308.334 340.5,318.5C 340.301,308.473 340.634,298.473 341.5,288.5C 329.5,288.5 317.5,288.5 305.5,288.5C 262.167,288.5 218.833,288.5 175.5,288.5 Z"/></g>
<g><path style="opacity:1" fill="#a17682" d="M 97.5,291.5 C 97.5,292.833 96.8333,293.5 95.5,293.5C 95.5,292.167 96.1667,291.5 97.5,291.5 Z"/></g>
<g><path style="opacity:1" fill="#8c8794" d="M 175.5,288.5 C 218.833,288.5 262.167,288.5 305.5,288.5C 262.846,290.495 219.846,291.161 176.5,290.5C 176.5,380.833 176.5,471.167 176.5,561.5C 176.167,561.5 175.833,561.5 175.5,561.5C 175.5,552.5 175.5,543.5 175.5,534.5C 175.5,452.5 175.5,370.5 175.5,288.5 Z"/></g>
<g><path style="opacity:1" fill="#a77082" d="M 94.5,294.5 C 94.5,295.833 93.8333,296.5 92.5,296.5C 92.5,295.167 93.1667,294.5 94.5,294.5 Z"/></g>
<g><path style="opacity:1" fill="#a77082" d="M 91.5,297.5 C 91.5,298.833 90.8333,299.5 89.5,299.5C 89.5,298.167 90.1667,297.5 91.5,297.5 Z"/></g>
<g><path style="opacity:1" fill="#9d9179" d="M 583.5,287.5 C 581.4,291.497 579.066,295.497 576.5,299.5C 575.358,300.826 574.024,301.826 572.5,302.5C 574.552,297.088 577.552,292.254 581.5,288C 582.094,287.536 582.761,287.369 583.5,287.5 Z"/></g>
<g><path style="opacity:1" fill="#95798f" d="M 88.5,300.5 C 80.954,308.897 72.954,316.897 64.5,324.5C 64.3505,323.448 64.5172,322.448 65,321.5C 71.1667,315.333 77.3333,309.167 83.5,303C 84.9003,301.562 86.567,300.729 88.5,300.5 Z"/></g>
<g><path style="opacity:1" fill="#a38a78" d="M 572.5,302.5 C 572.29,305.265 570.957,307.265 568.5,308.5C 568.347,305.465 569.68,303.465 572.5,302.5 Z"/></g>
<g><path style="opacity:1" fill="#af806d" d="M 566.5,309.5 C 566.741,312.034 565.741,313.7 563.5,314.5C 563.721,312.336 564.721,310.67 566.5,309.5 Z"/></g>
<g><path style="opacity:1" fill="#b77768" d="M 563.5,314.5 C 563.912,316.973 562.912,318.306 560.5,318.5C 560.468,316.381 561.468,315.048 563.5,314.5 Z"/></g>
<g><path style="opacity:1" fill="#a88674" d="M 560.5,318.5 C 560.741,321.034 559.741,322.7 557.5,323.5C 557.721,321.336 558.721,319.67 560.5,318.5 Z"/></g>
<g><path style="opacity:1" fill="#a17082" d="M 64.5,324.5 C 64.5,325.833 63.8333,326.5 62.5,326.5C 62.5,325.167 63.1667,324.5 64.5,324.5 Z"/></g>
<g><path style="opacity:1" fill="#b77a6a" d="M 556.5,324.5 C 556.715,326.179 556.048,327.179 554.5,327.5C 554.285,325.821 554.952,324.821 556.5,324.5 Z"/></g>
<g><path style="opacity:1" fill="#a77082" d="M 61.5,327.5 C 61.5,328.833 60.8333,329.5 59.5,329.5C 59.5,328.167 60.1667,327.5 61.5,327.5 Z"/></g>
<g><path style="opacity:1" fill="#988985" d="M 340.5,320.5 C 340.5,326.5 340.5,332.5 340.5,338.5C 339.833,338.5 339.167,338.5 338.5,338.5C 337.88,332.074 338.547,326.074 340.5,320.5 Z"/></g>
<g><path style="opacity:1" fill="#a77082" d="M 58.5,330.5 C 58.5,331.833 57.8333,332.5 56.5,332.5C 56.5,331.167 57.1667,330.5 58.5,330.5 Z"/></g>
<g><path style="opacity:1" fill="#a98772" d="M 553.5,329.5 C 553.532,331.619 552.532,332.952 550.5,333.5C 550.088,331.027 551.088,329.694 553.5,329.5 Z"/></g>
<g><path style="opacity:1" fill="#a17082" d="M 55.5,333.5 C 55.5,334.833 54.8333,335.5 53.5,335.5C 53.5,334.167 54.1667,333.5 55.5,333.5 Z"/></g>
<g><path style="opacity:1" fill="#a98373" d="M 550.5,333.5 C 550.715,335.179 550.048,336.179 548.5,336.5C 548.285,334.821 548.952,333.821 550.5,333.5 Z"/></g>
<g><path style="opacity:1" fill="#a77082" d="M 52.5,336.5 C 52.5,337.833 51.8333,338.5 50.5,338.5C 50.5,337.167 51.1667,336.5 52.5,336.5 Z"/></g>
<g><path style="opacity:1" fill="#9e8e78" d="M 548.5,336.5 C 547.225,340.91 544.892,344.577 541.5,347.5C 542.775,343.09 545.108,339.423 548.5,336.5 Z"/></g>
<g><path style="opacity:1" fill="#937b91" d="M 49.5,339.5 C 44.2795,344.95 39.2795,350.617 34.5,356.5C 34.3398,354.801 34.5065,353.134 35,351.5C 38.5,348.667 41.6667,345.5 44.5,342C 45.9003,340.562 47.567,339.729 49.5,339.5 Z"/></g>
<g><path style="opacity:1" fill="#b37672" d="M 338.5,338.5 C 339.167,338.5 339.833,338.5 340.5,338.5C 340.5,342.833 340.5,347.167 340.5,351.5C 338.533,359.097 337.866,367.097 338.5,375.5C 338.825,383.352 338.492,391.018 337.5,398.5C 337.5,392.833 337.5,387.167 337.5,381.5C 337.369,367.152 337.702,352.819 338.5,338.5 Z"/></g>
<g><path style="opacity:1" fill="#9c917a" d="M 541.5,347.5 C 541.719,348.675 541.386,349.675 540.5,350.5C 539.358,351.826 538.024,352.826 536.5,353.5C 536.729,351.567 537.562,349.9 539,348.5C 539.671,347.748 540.504,347.414 541.5,347.5 Z"/></g>
<g><path style="opacity:1" fill="#ad836d" d="M 536.5,353.5 C 536.912,355.973 535.912,357.306 533.5,357.5C 533.468,355.381 534.468,354.048 536.5,353.5 Z"/></g>
<g><path style="opacity:1" fill="#9f8e78" d="M 533.5,357.5 C 533.741,360.034 532.741,361.7 530.5,362.5C 530.721,360.336 531.721,358.67 533.5,357.5 Z"/></g>
<g><path style="opacity:1" fill="#8d7f96" d="M 34.5,356.5 C 32.9416,359.63 31.9416,362.963 31.5,366.5C 30.8333,366.5 30.1667,366.5 29.5,366.5C 30.2578,363.513 31.0911,360.513 32,357.5C 32.6708,356.748 33.5041,356.414 34.5,356.5 Z"/></g>
<g><path style="opacity:1" fill="#a98373" d="M 529.5,363.5 C 529.715,365.179 529.048,366.179 527.5,366.5C 527.285,364.821 527.952,363.821 529.5,363.5 Z"/></g>
<g><path style="opacity:1" fill="#db5453" d="M 340.5,351.5 C 341.134,359.903 340.467,367.903 338.5,375.5C 337.866,367.097 338.533,359.097 340.5,351.5 Z"/></g>
<g><path style="opacity:1" fill="#a18f79" d="M 526.5,368.5 C 526.532,370.619 525.532,371.952 523.5,372.5C 523.088,370.027 524.088,368.694 526.5,368.5 Z"/></g>
<g><path style="opacity:1" fill="#bc646f" d="M 29.5,366.5 C 30.1667,366.5 30.8333,366.5 31.5,366.5C 31.5,418.5 31.5,470.5 31.5,522.5C 30.8333,522.5 30.1667,522.5 29.5,522.5C 29.5,470.5 29.5,418.5 29.5,366.5 Z"/></g>
<g><path style="opacity:1" fill="#9f8f78" d="M 523.5,372.5 C 523.279,374.664 522.279,376.33 520.5,377.5C 520.259,374.966 521.259,373.3 523.5,372.5 Z"/></g>
<g><path style="opacity:1" fill="#99947b" d="M 520.5,377.5 C 520.532,379.619 519.532,380.952 517.5,381.5C 517.088,379.027 518.088,377.694 520.5,377.5 Z"/></g>
<g><path style="opacity:1" fill="#a08e79" d="M 517.5,381.5 C 517.271,383.433 516.438,385.1 515,386.5C 514.329,387.252 513.496,387.586 512.5,387.5C 512.281,386.325 512.614,385.325 513.5,384.5C 514.642,383.174 515.976,382.174 517.5,381.5 Z"/></g>
<g><path style="opacity:1" fill="#9e8e78" d="M 512.5,387.5 C 512.741,390.034 511.741,391.7 509.5,392.5C 509.721,390.336 510.721,388.67 512.5,387.5 Z"/></g>
<g><path style="opacity:1" fill="#f9faf9" d="M 905.5,390.5 C 921.5,390.5 937.5,390.5 953.5,390.5C 953.167,443.504 953.5,496.504 954.5,549.5C 979.42,528.326 1004.75,507.659 1030.5,487.5C 1051.83,486.167 1073.17,486.167 1094.5,487.5C 1069.63,508.08 1044.3,528.08 1018.5,547.5C 1037.48,569.981 1056.65,592.314 1076,614.5C 1078.4,616.949 1080.9,619.283 1083.5,621.5C 1086.81,626.308 1090.31,630.975 1094,635.5C 1097.81,638.128 1100.64,641.462 1102.5,645.5C 1081.12,645.822 1059.79,645.489 1038.5,644.5C 1019.97,621.434 1000.97,598.767 981.5,576.5C 973.972,583.74 965.972,590.407 957.5,596.5C 956.264,597.246 954.93,597.579 953.5,597.5C 953.5,613.5 953.5,629.5 953.5,645.5C 937.5,645.5 921.5,645.5 905.5,645.5C 905.5,560.5 905.5,475.5 905.5,390.5 Z"/></g>
<g><path style="opacity:1" fill="#f9faf9" d="M 1489.5,390.5 C 1505.5,390.5 1521.5,390.5 1537.5,390.5C 1537.5,475.5 1537.5,560.5 1537.5,645.5C 1485.15,645.816 1432.82,645.482 1380.5,644.5C 1353.05,639.547 1335.72,623.714 1328.5,597C 1320.68,567.682 1324.01,539.848 1338.5,513.5C 1350.73,497.711 1367.06,489.044 1387.5,487.5C 1421.49,486.5 1455.49,486.167 1489.5,486.5C 1489.5,454.5 1489.5,422.5 1489.5,390.5 Z M 1411.5,530.5 C 1437.5,530.5 1463.5,530.5 1489.5,530.5C 1489.5,554.5 1489.5,578.5 1489.5,602.5C 1460.83,602.833 1432.16,602.5 1403.5,601.5C 1395.58,601.472 1388.58,598.972 1382.5,594C 1380.04,590.786 1378.04,587.286 1376.5,583.5C 1376.09,577.885 1375.09,572.385 1373.5,567C 1374.71,559.006 1376.54,551.172 1379,543.5C 1382.35,540.313 1385.85,537.313 1389.5,534.5C 1396.84,532.461 1404.17,531.128 1411.5,530.5 Z"/></g>
<g><path style="opacity:1" fill="#f9faf9" d="M 2329.5,390.5 C 2345.83,390.5 2362.17,390.5 2378.5,390.5C 2378.5,475.5 2378.5,560.5 2378.5,645.5C 2362.17,645.5 2345.83,645.5 2329.5,645.5C 2329.5,560.5 2329.5,475.5 2329.5,390.5 Z"/></g>
<g><path style="opacity:1" fill="#f9faf9" d="M 2638.5,390.5 C 2654.5,390.5 2670.5,390.5 2686.5,390.5C 2686.5,422.5 2686.5,454.5 2686.5,486.5C 2720.51,486.167 2754.51,486.5 2788.5,487.5C 2821.45,491.119 2841.45,509.119 2848.5,541.5C 2852.68,561.751 2851.68,581.751 2845.5,601.5C 2837.29,625.722 2820.46,640.055 2795,644.5C 2742.85,645.485 2690.68,645.818 2638.5,645.5C 2638.5,560.5 2638.5,475.5 2638.5,390.5 Z M 2686.5,530.5 C 2712.5,530.333 2738.5,530.5 2764.5,531C 2771.87,531.104 2779.03,532.27 2786,534.5C 2793.16,538.485 2797.66,544.485 2799.5,552.5C 2802.78,566.498 2801.11,579.831 2794.5,592.5C 2788.22,598.778 2780.55,601.778 2771.5,601.5C 2743.17,602.5 2714.84,602.833 2686.5,602.5C 2686.5,578.5 2686.5,554.5 2686.5,530.5 Z"/></g>
<g><path style="opacity:1" fill="#a48876" d="M 509.5,392.5 C 509.912,394.973 508.912,396.306 506.5,396.5C 506.468,394.381 507.468,393.048 509.5,392.5 Z"/></g>
<g><path style="opacity:1" fill="#96957e" d="M 506.5,396.5 C 506.741,399.034 505.741,400.7 503.5,401.5C 503.721,399.336 504.721,397.67 506.5,396.5 Z"/></g>
<g><path style="opacity:1" fill="#9b8881" d="M 337.5,381.5 C 337.5,387.167 337.5,392.833 337.5,398.5C 337.5,402.5 337.5,406.5 337.5,410.5C 336.833,410.5 336.167,410.5 335.5,410.5C 334.86,400.442 335.527,390.775 337.5,381.5 Z"/></g>
<g><path style="opacity:1" fill="#9d8f79" d="M 502.5,402.5 C 502.279,404.664 501.279,406.33 499.5,407.5C 499.259,404.966 500.259,403.3 502.5,402.5 Z"/></g>
<g><path style="opacity:1" fill="#9a927b" d="M 499.5,407.5 C 499.532,409.619 498.532,410.952 496.5,411.5C 496.088,409.027 497.088,407.694 499.5,407.5 Z"/></g>
<g><path style="opacity:1" fill="#bf646a" d="M 175.5,288.5 C 175.5,370.5 175.5,452.5 175.5,534.5C 174.833,534.5 174.167,534.5 173.5,534.5C 172.836,452.16 173.503,370.16 175.5,288.5 Z"/></g>
<g><path style="opacity:1" fill="#a18d77" d="M 496.5,411.5 C 495.258,416.287 492.591,419.954 488.5,422.5C 489.742,417.713 492.409,414.046 496.5,411.5 Z"/></g>
<g><path style="opacity:1" fill="#a88872" d="M 488.5,422.5 C 488.912,424.973 487.912,426.306 485.5,426.5C 485.468,424.381 486.468,423.048 488.5,422.5 Z"/></g>
<g><path style="opacity:1" fill="#bd6e68" d="M 335.5,410.5 C 336.167,410.5 336.833,410.5 337.5,410.5C 337.5,418.833 337.5,427.167 337.5,435.5C 336.833,435.5 336.167,435.5 335.5,435.5C 335.5,430.5 335.5,425.5 335.5,420.5C 335.5,417.167 335.5,413.833 335.5,410.5 Z"/></g>
<g><path style="opacity:1" fill="#ab8473" d="M 482.5,429.5 C 482.741,432.034 481.741,433.7 479.5,434.5C 479.721,432.336 480.721,430.67 482.5,429.5 Z"/></g>
<g><path style="opacity:1" fill="#b37e6a" d="M 478.5,435.5 C 478.715,437.179 478.048,438.179 476.5,438.5C 476.285,436.821 476.952,435.821 478.5,435.5 Z"/></g>
<g><path style="opacity:1" fill="#9d8f78" d="M 475.5,440.5 C 475.715,442.179 475.048,443.179 473.5,443.5C 473.285,441.821 473.952,440.821 475.5,440.5 Z"/></g>
<g><path style="opacity:1" fill="#e64b4b" d="M 335.5,435.5 C 336.167,435.5 336.833,435.5 337.5,435.5C 338.162,487.844 337.496,539.844 335.5,591.5C 335.5,539.5 335.5,487.5 335.5,435.5 Z"/></g>
<g><path style="opacity:1" fill="#a08d76" d="M 472.5,444.5 C 472.279,446.664 471.279,448.33 469.5,449.5C 469.259,446.966 470.259,445.3 472.5,444.5 Z"/></g>
<g><path style="opacity:1" fill="#8e957d" d="M 469.5,449.5 C 469.64,451.124 468.973,452.29 467.5,453C 576.838,452.835 685.838,453.668 794.5,455.5C 794.167,455.5 793.833,455.5 793.5,455.5C 684.5,455.5 575.5,455.5 466.5,455.5C 466.34,453.801 466.506,452.134 467,450.5C 467.671,449.748 468.504,449.414 469.5,449.5 Z"/></g>
<g><path style="opacity:1" fill="#f9faf9" d="M 1685.5,467.5 C 1698.35,466.458 1710.52,468.792 1722,474.5C 1734.5,483 1745,493.5 1753.5,506C 1756.32,511.737 1759.32,517.404 1762.5,523C 1763.33,524.465 1763.5,525.965 1763,527.5C 1717.88,553.796 1672.71,579.796 1627.5,605.5C 1629.47,611.541 1633.81,614.541 1640.5,614.5C 1644.79,613.984 1648.95,612.984 1653,611.5C 1687.41,592.381 1721.41,572.714 1755,552.5C 1758.53,550.254 1762.36,548.92 1766.5,548.5C 1773.49,560.648 1780.15,572.982 1786.5,585.5C 1774.15,592.664 1761.48,599.498 1748.5,606C 1725,619.833 1701.5,633.667 1678,647.5C 1664.74,655.352 1650.41,659.686 1635,660.5C 1623.22,660.192 1612.39,656.859 1602.5,650.5C 1580.14,632.942 1566.14,609.942 1560.5,581.5C 1558.25,566.19 1560.91,551.857 1568.5,538.5C 1573.08,533.374 1577.41,528.041 1581.5,522.5C 1586.5,518.346 1591.66,514.346 1597,510.5C 1617.98,497.587 1639.65,485.587 1662,474.5C 1669.85,471.751 1677.69,469.418 1685.5,467.5 Z M 1688.5,509.5 C 1695.55,510.337 1701.22,513.504 1705.5,519C 1672.7,537.148 1640.37,555.981 1608.5,575.5C 1607.75,574.624 1607.25,573.624 1607,572.5C 1606.33,567.833 1606.33,563.167 1607,558.5C 1608.94,556.849 1610.44,554.849 1611.5,552.5C 1628,542.056 1644.66,531.89 1661.5,522C 1670.14,516.83 1679.14,512.663 1688.5,509.5 Z"/></g>
<g><path style="opacity:1" fill="#f9faf9" d="M 1151.5,486.5 C 1184.51,486.167 1217.51,486.5 1250.5,487.5C 1277.09,489.314 1295.75,502.148 1306.5,526C 1315.81,552.996 1315.81,579.996 1306.5,607C 1296.11,629.511 1278.45,642.177 1253.5,645C 1218.5,645.667 1183.5,645.667 1148.5,645C 1117.15,639.986 1098.15,621.986 1091.5,591C 1086.67,567.85 1088.67,545.35 1097.5,523.5C 1101.73,515.905 1106.73,508.905 1112.5,502.5C 1117.09,498.954 1122.09,495.954 1127.5,493.5C 1135.57,490.518 1143.57,488.185 1151.5,486.5 Z M 1162.5,531.5 C 1188.51,531.167 1214.51,531.5 1240.5,532.5C 1249.66,533.753 1256.33,538.42 1260.5,546.5C 1266.06,561.295 1265.39,575.795 1258.5,590C 1255.35,594.716 1251.01,597.883 1245.5,599.5C 1216,603.488 1186.5,603.488 1157,599.5C 1152.26,598.27 1148.42,595.77 1145.5,592C 1136.22,575.209 1136.22,558.376 1145.5,541.5C 1147.17,540.5 1148.5,539.167 1149.5,537.5C 1153.87,535.067 1158.21,533.067 1162.5,531.5 Z"/></g>
<g><path style="opacity:1" fill="#f9faf9" d="M 1789.5,486.5 C 1811.51,486.167 1833.51,486.5 1855.5,487.5C 1871.17,503.167 1886.83,518.833 1902.5,534.5C 1917.15,518.224 1932.49,502.557 1948.5,487.5C 1968.5,486.167 1988.5,486.167 2008.5,487.5C 1983.13,512.87 1957.46,537.87 1931.5,562.5C 1960.32,589.818 1988.98,617.318 2017.5,645C 1995.5,645.667 1973.5,645.667 1951.5,645C 1932.16,627.402 1913.32,609.235 1895,590.5C 1877.74,608.554 1860.57,626.721 1843.5,645C 1823.5,645.667 1803.5,645.667 1783.5,645C 1804.05,624.07 1824.72,603.237 1845.5,582.5C 1846.93,582.023 1848.26,581.357 1849.5,580.5C 1855.37,575.13 1860.7,569.297 1865.5,563C 1840.85,539.241 1816.52,515.074 1792.5,490.5C 1791.68,489.614 1790.68,489.281 1789.5,489.5C 1789.5,488.5 1789.5,487.5 1789.5,486.5 Z"/></g>
<g><path style="opacity:1" fill="#f9faf9" d="M 2069.5,486.5 C 2102.51,486.167 2135.51,486.5 2168.5,487.5C 2195.09,489.314 2213.75,502.148 2224.5,526C 2233.81,552.996 2233.81,579.996 2224.5,607C 2214.11,629.511 2196.45,642.177 2171.5,645C 2136.5,645.667 2101.5,645.667 2066.5,645C 2035.15,639.986 2016.15,621.986 2009.5,591C 2004.67,567.85 2006.67,545.35 2015.5,523.5C 2019.73,515.905 2024.73,508.905 2030.5,502.5C 2035.09,498.954 2040.09,495.954 2045.5,493.5C 2053.57,490.518 2061.57,488.185 2069.5,486.5 Z M 2080.5,531.5 C 2106.51,531.167 2132.51,531.5 2158.5,532.5C 2167.66,533.753 2174.33,538.42 2178.5,546.5C 2184.06,561.295 2183.39,575.795 2176.5,590C 2173.35,594.716 2169.01,597.883 2163.5,599.5C 2134,603.488 2104.5,603.488 2075,599.5C 2070.26,598.27 2066.42,595.77 2063.5,592C 2054.22,575.209 2054.22,558.376 2063.5,541.5C 2065.17,540.5 2066.5,539.167 2067.5,537.5C 2071.87,535.067 2076.21,533.067 2080.5,531.5 Z"/></g>
<g><path style="opacity:1" fill="#f9faf9" d="M 2459.5,486.5 C 2509.5,486.5 2559.5,486.5 2609.5,486.5C 2609.5,539.5 2609.5,592.5 2609.5,645.5C 2558.5,645.667 2507.5,645.5 2456.5,645C 2429.31,641.613 2411.31,627.113 2402.5,601.5C 2392.87,570.851 2395.7,541.517 2411,513.5C 2417.12,504.413 2425.29,497.746 2435.5,493.5C 2443.57,490.518 2451.57,488.185 2459.5,486.5 Z M 2483.5,530.5 C 2509.5,530.5 2535.5,530.5 2561.5,530.5C 2561.5,554.5 2561.5,578.5 2561.5,602.5C 2529.44,603.159 2497.44,602.326 2465.5,600C 2456.23,597.226 2450.56,591.059 2448.5,581.5C 2445.75,568.544 2446.75,555.877 2451.5,543.5C 2454.5,541.167 2457.17,538.5 2459.5,535.5C 2467.38,532.658 2475.38,530.992 2483.5,530.5 Z"/></g>
<g><path style="opacity:1" fill="#f9faf9" d="M 2899.5,486.5 C 2949.5,486.5 2999.5,486.5 3049.5,486.5C 3049.5,500.5 3049.5,514.5 3049.5,528.5C 3002.83,528.167 2956.16,528.5 2909.5,529.5C 2906.58,532.662 2905.91,536.328 2907.5,540.5C 2908.6,542.535 2910.26,543.868 2912.5,544.5C 2949.5,545.333 2986.5,545.833 3023.5,546C 3035.04,547.424 3044.37,552.591 3051.5,561.5C 3057.86,571.921 3060.53,583.254 3059.5,595.5C 3060.87,612.856 3055.2,627.189 3042.5,638.5C 3037.13,641.426 3031.47,643.593 3025.5,645C 2973.5,645.5 2921.5,645.667 2869.5,645.5C 2869.5,632.167 2869.5,618.833 2869.5,605.5C 2915.84,605.833 2962.17,605.5 3008.5,604.5C 3010.8,603.769 3012.64,602.436 3014,600.5C 3015.49,595.431 3014.33,591.264 3010.5,588C 2973.83,587.833 2937.16,587.333 2900.5,586.5C 2881.75,584.897 2869.58,575.231 2864,557.5C 2860.51,543.108 2860.67,528.775 2864.5,514.5C 2868.83,502.167 2877.17,493.833 2889.5,489.5C 2893.31,489.311 2896.65,488.311 2899.5,486.5 Z"/></g>
<g><path style="opacity:1" fill="#c75d65" d="M 29.5,522.5 C 30.1667,522.5 30.8333,522.5 31.5,522.5C 31.5,568.5 31.5,614.5 31.5,660.5C 30.8333,660.5 30.1667,660.5 29.5,660.5C 29.5,614.5 29.5,568.5 29.5,522.5 Z"/></g>
<g><path style="opacity:1" fill="#c36664" d="M 173.5,534.5 C 174.167,534.5 174.833,534.5 175.5,534.5C 175.5,543.5 175.5,552.5 175.5,561.5C 175.5,627.167 175.5,692.833 175.5,758.5C 173.503,684.174 172.836,609.507 173.5,534.5 Z"/></g>
<g><path style="opacity:1" fill="#9e8b77" d="M 335.5,420.5 C 335.5,425.5 335.5,430.5 335.5,435.5C 335.5,487.5 335.5,539.5 335.5,591.5C 335.5,592.5 335.5,593.5 335.5,594.5C 439.505,593.836 543.172,594.502 646.5,596.5C 645.833,596.5 645.167,596.5 644.5,596.5C 541.167,596.5 437.833,596.5 334.5,596.5C 334.168,537.664 334.501,478.998 335.5,420.5 Z"/></g>
<g><path style="opacity:1" fill="#cd5d5c" d="M 29.5,660.5 C 30.1667,660.5 30.8333,660.5 31.5,660.5C 31.5,692.5 31.5,724.5 31.5,756.5C 30.8333,756.5 30.1667,756.5 29.5,756.5C 29.5,724.5 29.5,692.5 29.5,660.5 Z"/></g>
<g><path style="opacity:1" fill="#8f8a76" d="M 644.5,596.5 C 645.167,596.5 645.833,596.5 646.5,596.5C 647.162,650.177 646.496,703.51 644.5,756.5C 644.5,703.167 644.5,649.833 644.5,596.5 Z"/></g>
<g><path style="opacity:1" fill="#958f85" d="M 175.5,561.5 C 175.833,561.5 176.167,561.5 176.5,561.5C 176.5,626.5 176.5,691.5 176.5,756.5C 190.167,756.5 203.833,756.5 217.5,756.5C 217.5,757.167 217.5,757.833 217.5,758.5C 203.5,758.5 189.5,758.5 175.5,758.5C 175.5,692.833 175.5,627.167 175.5,561.5 Z"/></g>
<g><path style="opacity:1" fill="#9d8874" d="M 646.5,596.5 C 647.499,650.331 647.832,704.331 647.5,758.5C 504.167,758.5 360.833,758.5 217.5,758.5C 217.5,757.833 217.5,757.167 217.5,756.5C 359.833,756.5 502.167,756.5 644.5,756.5C 646.496,703.51 647.162,650.177 646.5,596.5 Z"/></g>
<g><path style="opacity:1" fill="#c76463" d="M 29.5,756.5 C 30.1667,756.5 30.8333,756.5 31.5,756.5C 31.5,786.5 31.5,816.5 31.5,846.5C 30.8333,846.5 30.1667,846.5 29.5,846.5C 29.5,816.5 29.5,786.5 29.5,756.5 Z"/></g>
<g><path style="opacity:1" fill="#cf5c5b" d="M 29.5,846.5 C 30.1667,846.5 30.8333,846.5 31.5,846.5C 31.5,865.167 31.5,883.833 31.5,902.5C 30.8333,902.5 30.1667,902.5 29.5,902.5C 29.5,883.833 29.5,865.167 29.5,846.5 Z"/></g>
<g><path style="opacity:1" fill="#ad7367" d="M 793.5,455.5 C 793.833,455.5 794.167,455.5 794.5,455.5C 794.5,604.833 794.5,754.167 794.5,903.5C 539.333,903.833 284.333,903.5 29.5,902.5C 30.1667,902.5 30.8333,902.5 31.5,902.5C 285.5,902.5 539.5,902.5 793.5,902.5C 793.5,753.5 793.5,604.5 793.5,455.5 Z"/></g>
</svg>
