<?xml version="1.0" encoding="UTF-8"?>
<!DOCTYPE svg PUBLIC "-//W3C//DTD SVG 1.1//EN" "http://www.w3.org/Graphics/SVG/1.1/DTD/svg11.dtd">
<svg xmlns="http://www.w3.org/2000/svg" version="1.1" width="1080px" height="1080px" style="shape-rendering:geometricPrecision; text-rendering:geometricPrecision; image-rendering:optimizeQuality; fill-rule:evenodd; clip-rule:evenodd" xmlns:xlink="http://www.w3.org/1999/xlink">
<g><path style="opacity:1" fill="#f24443" d="M 353.5,205.5 C 474.5,205.333 595.5,205.5 716.5,206C 721.396,207.397 725.563,209.897 729,213.5C 730.088,215.385 730.921,217.385 731.5,219.5C 730.32,222.431 728.987,225.264 727.5,228C 722.427,235.344 717.26,242.511 712,249.5C 711,250.167 710,250.833 709,251.5C 695.24,274.017 680.24,295.684 664,316.5C 655.753,330.519 646.42,343.853 636,356.5C 631.29,364.195 626.623,371.861 622,379.5C 621,380.167 620,380.833 619,381.5C 597.974,413.088 576.141,444.422 553.5,475.5C 649.831,476.5 746.164,476.833 842.5,476.5C 842.5,609.167 842.5,741.833 842.5,874.5C 617.167,874.5 391.833,874.5 166.5,874.5C 166.006,713.457 166.506,552.457 168,391.5C 172.791,383.042 179.291,376.209 187.5,371C 190.333,368.167 193.167,365.333 196,362.5C 196.333,361.5 196.667,360.5 197,359.5C 206.731,349.1 217.064,339.433 228,330.5C 233.983,322.685 240.483,315.352 247.5,308.5C 248.912,307.194 250.579,306.36 252.5,306C 256,301.167 260.167,297 265,293.5C 265.941,291.228 267.274,289.228 269,287.5C 279.275,276.804 289.941,266.804 301,257.5C 307.5,247.667 315.667,239.5 325.5,233C 334.073,222.979 343.407,213.812 353.5,205.5 Z M 410.5,330.5 C 420.833,330.5 431.167,330.5 441.5,330.5C 435.996,421.065 433.996,511.732 435.5,602.5C 526.833,602.5 618.167,602.5 709.5,602.5C 709.5,649.833 709.5,697.167 709.5,744.5C 571.833,744.5 434.167,744.5 296.5,744.5C 296.5,606.833 296.5,469.167 296.5,331.5C 334.67,331.832 372.67,331.499 410.5,330.5 Z"/></g>
</svg>
